<svg width="20" height="20" viewBox="0 0 20 20" fill="none" xmlns="http://www.w3.org/2000/svg">
<path fill-rule="evenodd" clip-rule="evenodd" d="M11.5924 11.4138C10.1604 12.8457 7.83883 12.8457 6.40691 11.4138C4.97499 9.98187 4.97499 7.66027 6.40691 6.22834C7.83883 4.79642 10.1604 4.79642 11.5924 6.22834C13.0243 7.66027 13.0243 9.98187 11.5924 11.4138ZM12.0327 12.7968C10.0725 14.2961 7.25693 14.1494 5.4641 12.3566C3.51148 10.404 3.51148 7.23816 5.4641 5.28553C7.41672 3.33291 10.5825 3.33291 12.5352 5.28553C14.3279 7.07828 14.4747 9.8937 12.9755 11.8539L16.5422 15.4206L15.5994 16.3634L12.0327 12.7968Z" fill="#999999"/>
</svg>
